<svg width="20" height="20" viewBox="0 0 20 20" fill="none" xmlns="http://www.w3.org/2000/svg">
<path d="M5.83333 6.66671H14.1667M5.83333 10H14.1667M5.83333 13.3334H14.1667M2.5 5.00004C2.5 4.55801 2.67559 4.13409 2.98816 3.82153C3.30072 3.50897 3.72464 3.33337 4.16667 3.33337H15.8333C16.2754 3.33337 16.6993 3.50897 17.0118 3.82153C17.3244 4.13409 17.5 4.55801 17.5 5.00004V15C17.5 15.4421 17.3244 15.866 17.0118 16.1786C16.6993 16.4911 16.2754 16.6667 15.8333 16.6667H4.16667C3.72464 16.6667 3.30072 16.4911 2.98816 16.1786C2.67559 15.866 2.5 15.4421 2.5 15V5.00004Z" stroke="#3E3E3E" stroke-width="1.33333" stroke-linecap="round" stroke-linejoin="round"/>
</svg>
