<svg width="18" height="18" viewBox="0 0 18 18" fill="none" xmlns="http://www.w3.org/2000/svg">
<path d="M4.83366 15.6666H3.16699C2.50395 15.6666 1.86807 15.4032 1.39923 14.9344C0.930384 14.4656 0.666992 13.8297 0.666992 13.1666V12.3333H5.25033M12.3337 5.24996V2.33329C12.3337 2.00366 12.4314 1.68142 12.6145 1.40734C12.7977 1.13326 13.058 0.91964 13.3625 0.793494C13.6671 0.667348 14.0022 0.634343 14.3255 0.698651C14.6488 0.76296 14.9457 0.921694 15.1788 1.15478C15.4119 1.38787 15.5707 1.68484 15.635 2.00814C15.6993 2.33144 15.6663 2.66656 15.5401 2.9711C15.414 3.27564 15.2004 3.53594 14.9263 3.71908C14.6522 3.90221 14.33 3.99996 14.0003 3.99996H12.3337" stroke="#767676" stroke-width="1.33333" stroke-linecap="round" stroke-linejoin="round"/>
<path d="M14.0007 0.666626H4.83398C4.17094 0.666626 3.53506 0.930018 3.06622 1.39886C2.59738 1.8677 2.33398 2.50358 2.33398 3.16663V12.3333M5.66732 3.99996H9.00065M5.66732 7.33329H9.00065M13.5173 8.67496C13.8455 8.34675 14.2907 8.16237 14.7548 8.16237C15.219 8.16237 15.6641 8.34675 15.9923 8.67496C16.3205 9.00316 16.5049 9.44831 16.5049 9.91246C16.5049 10.3766 16.3205 10.8218 15.9923 11.15L10.6673 16.5H8.16732V14L13.5173 8.67496Z" stroke="#767676" stroke-width="1.33333" stroke-linecap="round" stroke-linejoin="round"/>
</svg>
