<svg width="15" height="15" viewBox="0 0 15 15" fill="none" xmlns="http://www.w3.org/2000/svg">
<path d="M0.666992 0.666626H5.66699V5.66663H0.666992V0.666626ZM9.00033 0.666626H14.0003V5.66663H9.00033V0.666626ZM0.666992 8.99996H5.66699V14H0.666992V8.99996ZM9.00033 11.5C9.00033 12.163 9.26372 12.7989 9.73256 13.2677C10.2014 13.7366 10.8373 14 11.5003 14C12.1634 14 12.7993 13.7366 13.2681 13.2677C13.7369 12.7989 14.0003 12.163 14.0003 11.5C14.0003 10.8369 13.7369 10.201 13.2681 9.73219C12.7993 9.26335 12.1634 8.99996 11.5003 8.99996C10.8373 8.99996 10.2014 9.26335 9.73256 9.73219C9.26372 10.201 9.00033 10.8369 9.00033 11.5Z" stroke="#767676" stroke-width="1.33333" stroke-linecap="round" stroke-linejoin="round"/>
</svg>
