<svg width="20" height="20" viewBox="0 0 20 20" fill="none" xmlns="http://www.w3.org/2000/svg">
<path d="M5.83366 13.75L1.66699 11.25L5.83366 8.75L10.0003 11.25V15.8333L5.83366 18.3333V13.75Z" stroke="#767676" stroke-width="1.33333" stroke-linecap="round" stroke-linejoin="round"/>
<path d="M1.66699 11.25V15.8333L5.83366 18.3333M5.83366 13.7875L10.0003 11.2625M14.167 13.75L10.0003 11.25M14.167 13.75V18.3333M14.167 13.75L18.3337 11.25M10.0003 11.25L14.167 8.74996M10.0003 11.25V6.66663M14.167 8.74996L18.3337 11.25M14.167 8.74996V4.16663M18.3337 11.25V15.8333L14.167 18.3333M14.167 18.3333L10.0003 15.8333M10.0003 6.66663L5.83366 4.16663L10.0003 1.66663L14.167 4.16663M10.0003 6.66663L14.167 4.16663M5.83366 4.19163V8.73746" stroke="#767676" stroke-width="1.33333" stroke-linecap="round" stroke-linejoin="round"/>
</svg>
