<svg width="17" height="17" viewBox="0 0 17 17" fill="none" xmlns="http://www.w3.org/2000/svg">
<path d="M6.77116 1.76425C7.12616 0.300915 9.20783 0.300915 9.56283 1.76425C9.61609 1.98408 9.72051 2.18823 9.86758 2.36008C10.0147 2.53193 10.2002 2.66663 10.4092 2.7532C10.6182 2.83978 10.8446 2.87579 11.0701 2.85831C11.2957 2.84082 11.5139 2.77033 11.707 2.65258C12.9928 1.86925 14.4653 3.34091 13.682 4.62758C13.5644 4.82063 13.494 5.0387 13.4766 5.26406C13.4591 5.48942 13.4951 5.71572 13.5816 5.92456C13.6681 6.13341 13.8026 6.3189 13.9743 6.46596C14.1459 6.61302 14.3499 6.7175 14.5695 6.77091C16.0328 7.12591 16.0328 9.20758 14.5695 9.56258C14.3497 9.61585 14.1455 9.72027 13.9737 9.86734C13.8018 10.0144 13.6671 10.2 13.5805 10.409C13.494 10.6179 13.4579 10.8444 13.4754 11.0699C13.4929 11.2954 13.5634 11.5136 13.6812 11.7067C14.4645 12.9926 12.9928 14.4651 11.7062 13.6817C11.5131 13.5642 11.295 13.4938 11.0697 13.4763C10.8443 13.4589 10.618 13.4949 10.4092 13.5814C10.2003 13.6678 10.0148 13.8024 9.86778 13.974C9.72072 14.1457 9.61624 14.3496 9.56283 14.5692C9.20783 16.0326 7.12616 16.0326 6.77116 14.5692C6.71789 14.3494 6.61347 14.1453 6.4664 13.9734C6.31933 13.8016 6.13375 13.6669 5.92478 13.5803C5.71581 13.4937 5.48935 13.4577 5.26384 13.4752C5.03832 13.4927 4.82012 13.5632 4.62699 13.6809C3.34116 14.4642 1.86866 12.9926 2.65199 11.7059C2.76958 11.5129 2.83995 11.2948 2.8574 11.0694C2.87484 10.8441 2.83886 10.6178 2.75239 10.4089C2.66591 10.2001 2.53138 10.0146 2.35972 9.86754C2.18806 9.72048 1.98413 9.61599 1.76449 9.56258C0.301159 9.20758 0.301159 7.12591 1.76449 6.77091C1.98432 6.71765 2.18847 6.61323 2.36033 6.46616C2.53218 6.31908 2.66687 6.13351 2.75345 5.92454C2.84002 5.71557 2.87603 5.48911 2.85855 5.26359C2.84106 5.03808 2.77058 4.81987 2.65283 4.62675C1.86949 3.34091 3.34116 1.86841 4.62783 2.65175C5.46116 3.15841 6.54116 2.71008 6.77116 1.76425Z" stroke="#767676" stroke-width="1.33333" stroke-linecap="round" stroke-linejoin="round"/>
<path d="M5.66699 8.16675C5.66699 8.82979 5.93038 9.46567 6.39922 9.93452C6.86807 10.4034 7.50395 10.6667 8.16699 10.6667C8.83003 10.6667 9.46592 10.4034 9.93476 9.93452C10.4036 9.46567 10.667 8.82979 10.667 8.16675C10.667 7.50371 10.4036 6.86782 9.93476 6.39898C9.46592 5.93014 8.83003 5.66675 8.16699 5.66675C7.50395 5.66675 6.86807 5.93014 6.39922 6.39898C5.93038 6.86782 5.66699 7.50371 5.66699 8.16675Z" stroke="#767676" stroke-width="1.33333" stroke-linecap="round" stroke-linejoin="round"/>
</svg>
