<svg width="20" height="20" viewBox="0 0 20 20" fill="none" xmlns="http://www.w3.org/2000/svg">
<path d="M10 5.83333C9.55797 5.83333 9.13405 5.65774 8.82149 5.34518C8.50893 5.03262 8.33333 4.60869 8.33333 4.16667C8.33333 3.72464 8.50893 3.30072 8.82149 2.98816C9.13405 2.67559 9.55797 2.5 10 2.5C10.442 2.5 10.866 2.67559 11.1785 2.98816C11.4911 3.30072 11.6667 3.72464 11.6667 4.16667C11.6667 4.60869 11.4911 5.03262 11.1785 5.34518C10.866 5.65774 10.442 5.83333 10 5.83333ZM10 5.83333V9.16667M10 9.16667C10.663 9.16667 11.2989 9.43006 11.7678 9.8989C12.2366 10.3677 12.5 11.0036 12.5 11.6667C12.5 12.3297 12.2366 12.9656 11.7678 13.4344C11.2989 13.9033 10.663 14.1667 10 14.1667C9.33696 14.1667 8.70107 13.9033 8.23223 13.4344C7.76339 12.9656 7.5 12.3297 7.5 11.6667C7.5 11.0036 7.76339 10.3677 8.23223 9.8989C8.70107 9.43006 9.33696 9.16667 10 9.16667ZM5.58333 14.8333L7.91667 13.1667M14.4167 14.8333L12.0833 13.1667M2.5 15.8333C2.5 16.2754 2.67559 16.6993 2.98816 17.0118C3.30072 17.3244 3.72464 17.5 4.16667 17.5C4.60869 17.5 5.03262 17.3244 5.34518 17.0118C5.65774 16.6993 5.83333 16.2754 5.83333 15.8333C5.83333 15.3913 5.65774 14.9674 5.34518 14.6548C5.03262 14.3423 4.60869 14.1667 4.16667 14.1667C3.72464 14.1667 3.30072 14.3423 2.98816 14.6548C2.67559 14.9674 2.5 15.3913 2.5 15.8333ZM14.1667 15.8333C14.1667 16.2754 14.3423 16.6993 14.6548 17.0118C14.9674 17.3244 15.3913 17.5 15.8333 17.5C16.2754 17.5 16.6993 17.3244 17.0118 17.0118C17.3244 16.6993 17.5 16.2754 17.5 15.8333C17.5 15.3913 17.3244 14.9674 17.0118 14.6548C16.6993 14.3423 16.2754 14.1667 15.8333 14.1667C15.3913 14.1667 14.9674 14.3423 14.6548 14.6548C14.3423 14.9674 14.1667 15.3913 14.1667 15.8333Z" stroke="#767676" stroke-width="1.33333" stroke-linecap="round" stroke-linejoin="round"/>
</svg>
