<svg width="20" height="20" viewBox="0 0 20 20" fill="none" xmlns="http://www.w3.org/2000/svg">
<path d="M5.16797 15.62C5.38812 14.9544 5.81257 14.3751 6.38095 13.9645C6.94932 13.554 7.63267 13.3331 8.3338 13.3334H11.6671C12.3678 13.3331 13.0508 13.5537 13.6189 13.9638C14.1871 14.3738 14.6116 14.9525 14.8321 15.6175M10.0005 10.8334C10.6635 10.8334 11.2994 10.57 11.7682 10.1011C12.2371 9.6323 12.5005 8.99642 12.5005 8.33337C12.5005 7.67033 12.2371 7.03445 11.7682 6.56561C11.2994 6.09677 10.6635 5.83337 10.0005 5.83337C9.33743 5.83337 8.70154 6.09677 8.2327 6.56561C7.76386 7.03445 7.50047 7.67033 7.50047 8.33337C7.50047 8.99642 7.76386 9.6323 8.2327 10.1011C8.70154 10.57 9.33743 10.8334 10.0005 10.8334Z" stroke="#767676" stroke-width="1.33333" stroke-linecap="round" stroke-linejoin="round"/>
<path d="M16.5625 5.22498C17.1458 5.55665 17.5042 6.17748 17.5 6.84832V12.9183C17.5 13.5925 17.1308 14.2142 16.535 14.5417L10.91 18.1C10.6311 18.253 10.3181 18.3332 10 18.3332C9.68188 18.3332 9.36889 18.253 9.09 18.1L3.465 14.5417C3.17376 14.382 2.93064 14.1472 2.76092 13.8617C2.59121 13.5762 2.50111 13.2504 2.5 12.9183V6.84748C2.5 6.17332 2.86917 5.55248 3.465 5.22498L9.09 1.90832C9.37711 1.75001 9.69964 1.66699 10.0275 1.66699C10.3554 1.66699 10.6779 1.75001 10.965 1.90832L16.59 5.22498H16.5625Z" stroke="#767676" stroke-width="1.33333" stroke-linecap="round" stroke-linejoin="round"/>
</svg>
