<svg width="12" height="14" viewBox="0 0 12 14" fill="none" xmlns="http://www.w3.org/2000/svg">
<path d="M0.666992 3.33334H11.3337M4.66699 6.00001V10M7.33366 6.00001V10M1.33366 3.33334L2.00033 11.3333C2.00033 11.687 2.1408 12.0261 2.39085 12.2761C2.6409 12.5262 2.98004 12.6667 3.33366 12.6667H8.66699C9.02061 12.6667 9.35975 12.5262 9.6098 12.2761C9.85985 12.0261 10.0003 11.687 10.0003 11.3333L10.667 3.33334M4.00033 3.33334V1.33334C4.00033 1.15653 4.07056 0.986958 4.19559 0.861934C4.32061 0.73691 4.49018 0.666672 4.66699 0.666672H7.33366C7.51047 0.666672 7.68004 0.73691 7.80506 0.861934C7.93009 0.986958 8.00033 1.15653 8.00033 1.33334V3.33334" stroke="#FF383C" stroke-width="1.33333" stroke-linecap="round" stroke-linejoin="round"/>
</svg>
