<svg width="13" height="13" viewBox="0 0 13 13" fill="none" xmlns="http://www.w3.org/2000/svg">
<path d="M2.66699 3.3334H2.00033C1.6467 3.3334 1.30756 3.47388 1.05752 3.72393C0.807468 3.97398 0.666992 4.31312 0.666992 4.66674V10.6667C0.666992 11.0204 0.807468 11.3595 1.05752 11.6095C1.30756 11.8596 1.6467 12.0001 2.00033 12.0001H8.00033C8.35395 12.0001 8.69309 11.8596 8.94313 11.6095C9.19318 11.3595 9.33366 11.0204 9.33366 10.6667V10.0001" stroke="#767676" stroke-width="1.33333" stroke-linecap="round" stroke-linejoin="round"/>
<path d="M8.66667 2.00008L10.6667 4.00008M11.59 3.05674C11.8526 2.79418 12.0001 2.43807 12.0001 2.06674C12.0001 1.69542 11.8526 1.33931 11.59 1.07674C11.3274 0.814179 10.9713 0.666672 10.6 0.666672C10.2287 0.666672 9.87257 0.814179 9.61 1.07674L4 6.66674V8.66674H6L11.59 3.05674Z" stroke="#3E3E3E" stroke-width="1.33333" stroke-linecap="round" stroke-linejoin="round"/>
</svg>
