<svg width="25" height="24" viewBox="0 0 25 24" fill="none" xmlns="http://www.w3.org/2000/svg">
<path d="M12.0468 0H11.9921C5.36904 0 0 5.15428 0 11.5124V11.565C0 17.9231 5.36904 23.0774 11.9921 23.0774H12.0468C18.6699 23.0774 24.0389 17.9231 24.0389 11.565V11.5124C24.0389 5.15428 18.6699 0 12.0468 0Z" fill="white"/>
<path d="M14.3483 5.28198H11.731C11.561 5.28198 11.3979 5.34952 11.2777 5.46974C11.1575 5.58996 11.0899 5.75301 11.0899 5.92302V13.295C11.09 13.4547 11.0503 13.6119 10.9744 13.7524C10.8985 13.893 10.7888 14.0124 10.6552 14.0999C10.5215 14.1874 10.3682 14.2402 10.2091 14.2536C10.0499 14.267 9.88995 14.2406 9.74358 14.1766C9.5972 14.1127 9.46906 14.0134 9.37072 13.8875C9.27237 13.7617 9.20693 13.6133 9.18029 13.4558C9.15365 13.2983 9.16666 13.1367 9.21814 12.9855C9.26962 12.8343 9.35796 12.6983 9.47516 12.5898L9.55209 12.5257C9.63158 12.4659 9.69608 12.3885 9.74047 12.2995C9.78486 12.2105 9.80794 12.1123 9.80786 12.0129V9.23975C9.80794 9.14299 9.78611 9.04746 9.74401 8.96034C9.70191 8.87321 9.64064 8.79675 9.56478 8.73668C9.48892 8.67661 9.40045 8.63449 9.30599 8.61348C9.21154 8.59248 9.11355 8.59313 9.01938 8.61538C7.87133 8.88595 6.8628 9.5691 6.18567 10.5349C5.50853 11.5006 5.21004 12.6816 5.34698 13.8532C5.48392 15.0247 6.04674 16.105 6.92836 16.8886C7.80998 17.6721 8.94888 18.1042 10.1284 18.1027L10.2842 18.0995C11.5315 18.0591 12.7143 17.5352 13.5824 16.6386C14.4505 15.742 14.936 14.543 14.9362 13.295V11.5642L15.1355 11.6622C15.8548 12.002 16.6311 12.2187 17.4369 12.2988C17.526 12.3077 17.616 12.2977 17.7011 12.2697C17.7862 12.2416 17.8644 12.196 17.9308 12.1359C17.9972 12.0757 18.0502 12.0023 18.0865 11.9204C18.1227 11.8385 18.1414 11.7499 18.1414 11.6603V9.07501C18.1413 8.92345 18.0876 8.77681 17.9898 8.6611C17.8919 8.54539 17.7562 8.4681 17.6067 8.44294C16.9507 8.33164 16.3456 8.01914 15.875 7.54871C15.4045 7.07829 15.0919 6.47321 14.9804 5.81725C14.9554 5.66768 14.8781 5.53183 14.7624 5.43383C14.6467 5.33583 14.5 5.28203 14.3483 5.28198Z" fill="#3E9C94"/>
</svg>
