<svg width="27" height="26" viewBox="0 0 27 26" fill="none" xmlns="http://www.w3.org/2000/svg">
<path d="M13.0469 0.5L13.3682 0.503906C20.1005 0.667677 25.5391 5.96327 25.5391 12.5127V12.5654C25.5388 19.2185 19.9265 24.5771 13.0469 24.5771H12.9922C6.11259 24.5771 0.500263 19.2185 0.5 12.5654V12.5127C0.5 5.85938 6.11243 0.5 12.9922 0.5H13.0469Z" stroke="white"/>
<path d="M15.3483 6.28198H12.731C12.561 6.28198 12.3979 6.34952 12.2777 6.46974C12.1575 6.58996 12.0899 6.75301 12.0899 6.92302V14.295C12.09 14.4547 12.0503 14.6119 11.9744 14.7524C11.8985 14.893 11.7888 15.0124 11.6552 15.0999C11.5215 15.1874 11.3682 15.2402 11.2091 15.2536C11.0499 15.267 10.8899 15.2406 10.7436 15.1766C10.5972 15.1127 10.4691 15.0134 10.3707 14.8875C10.2724 14.7617 10.2069 14.6133 10.1803 14.4558C10.1537 14.2983 10.1667 14.1367 10.2181 13.9855C10.2696 13.8343 10.358 13.6983 10.4752 13.5898L10.5521 13.5257C10.6316 13.4659 10.6961 13.3885 10.7405 13.2995C10.7849 13.2105 10.8079 13.1123 10.8079 13.0129V10.2398C10.8079 10.143 10.7861 10.0475 10.744 9.96034C10.7019 9.87321 10.6406 9.79675 10.5648 9.73668C10.4889 9.67661 10.4004 9.63449 10.306 9.61348C10.2115 9.59248 10.1136 9.59313 10.0194 9.61538C8.87133 9.88595 7.8628 10.5691 7.18567 11.5349C6.50853 12.5006 6.21004 13.6816 6.34698 14.8532C6.48392 16.0247 7.04674 17.105 7.92836 17.8886C8.80998 18.6721 9.94888 19.1042 11.1284 19.1027L11.2842 19.0995C12.5315 19.0591 13.7143 18.5352 14.5824 17.6386C15.4505 16.742 15.936 15.543 15.9362 14.295V12.5642L16.1355 12.6622C16.8548 13.002 17.6311 13.2187 18.4369 13.2988C18.526 13.3077 18.616 13.2977 18.7011 13.2697C18.7862 13.2416 18.8644 13.196 18.9308 13.1359C18.9972 13.0757 19.0502 13.0023 19.0865 12.9204C19.1227 12.8385 19.1414 12.7499 19.1414 12.6603V10.075C19.1413 9.92345 19.0876 9.77681 18.9898 9.6611C18.8919 9.54539 18.7562 9.4681 18.6067 9.44294C17.9507 9.33164 17.3456 9.01914 16.875 8.54871C16.4045 8.07829 16.0919 7.47321 15.9804 6.81725C15.9554 6.66768 15.8781 6.53183 15.7624 6.43383C15.6467 6.33583 15.5 6.28203 15.3483 6.28198Z" fill="white"/>
</svg>
